<?xml version="1.0" encoding="UTF-8" standalone="no"?>
<svg
   width="456"
   height="456"
   viewBox="0 0 456 456"
   version="1.1"
   xml:space="preserve"
   style="fill-rule:evenodd;clip-rule:evenodd;stroke-linejoin:round;stroke-miterlimit:2;"
   id="svg4"
   sodipodi:docname="appiconfg.svg"
   inkscape:version="1.3 (0e150ed6c4, 2023-07-21)"
   xmlns:inkscape="http://www.inkscape.org/namespaces/inkscape"
   xmlns:sodipodi="http://sodipodi.sourceforge.net/DTD/sodipodi-0.dtd"
   xmlns="http://www.w3.org/2000/svg"
   xmlns:svg="http://www.w3.org/2000/svg"><defs
   id="defs4" /><sodipodi:namedview
   id="namedview4"
   pagecolor="#ffffff"
   bordercolor="#000000"
   borderopacity="0.25"
   inkscape:showpageshadow="2"
   inkscape:pageopacity="0.0"
   inkscape:pagecheckerboard="0"
   inkscape:deskcolor="#d1d1d1"
   inkscape:zoom="2.4934211"
   inkscape:cx="227.79947"
   inkscape:cy="232.41161"
   inkscape:window-width="2560"
   inkscape:window-height="1351"
   inkscape:window-x="2551"
   inkscape:window-y="-9"
   inkscape:window-maximized="1"
   inkscape:current-layer="svg4"
   showgrid="false" />&#10;    &#10;    &#10;    &#10;    &#10;<path
   sodipodi:type="star"
   style="fill:#ffff00"
   id="path1"
   inkscape:flatsided="false"
   sodipodi:sides="10"
   sodipodi:cx="121.11873"
   sodipodi:cy="77.00264"
   sodipodi:r1="82.489792"
   sodipodi:r2="41.244896"
   sodipodi:arg1="0.89909258"
   sodipodi:arg2="1.2132518"
   inkscape:rounded="0"
   inkscape:randomized="0"
   d="m 172.45382,141.57256 -36.9004,-25.93339 -10.85698,43.77564 -14.60979,-42.67007 -34.514147,29.03367 13.261268,-43.10822 -44.988099,3.20182 L 79.912644,78.791499 41.634523,54.938488 86.730841,54.229528 69.783639,12.432722 106.68404,38.366112 117.54101,-5.40953 132.1508,37.260536 166.66495,8.2268659 153.40369,51.335093 l 44.98809,-3.201823 -36.06697,27.08051 38.27812,23.853012 -45.09631,0.708959 z"
   transform="matrix(4.1964663,0,0,4.2775599,-276.66119,-111.81084)" /><g
   inkscape:label="Layer 1"
   id="layer1"
   transform="matrix(48.886898,0,0,49.81162,-83.524749,-94.880208)"
   style="fill-rule:evenodd;clip-rule:evenodd;stroke-linejoin:round;stroke-miterlimit:2;fill:#aa0000"><ellipse
     style="fill:#ff0000;stroke-width:0.264583"
     id="path5"
     cx="6.4589376"
     cy="6.4473934"
     rx="2.9957004"
     ry="2.9726121" /><rect
     style="fill:#ff0000;stroke-width:0.570258"
     id="rect5"
     width="9.2237558"
     height="0.18470599"
     x="1.7316185"
     y="6.7417684" /><rect
     style="fill:#ff0000;stroke-width:0.264583"
     id="rect6"
     width="0.26551485"
     height="8.6003723"
     x="6.3261805"
     y="2.0779424" /><rect
     style="fill:#ff0000;stroke-width:0.570258"
     id="rect8"
     width="9.2237558"
     height="0.18470599"
     x="-4.4330621"
     y="9.2303715"
     transform="rotate(-41.768931)" /><rect
     style="fill:#ff0000;stroke-width:0.570258"
     id="rect9"
     width="9.2237558"
     height="0.18470599"
     x="4.6897459"
     y="0.55953461"
     transform="rotate(43.123317)" /><ellipse
     style="fill:#ff0000;stroke-width:0.264583"
     id="path9"
     cx="3.0707371"
     cy="3.8268771"
     rx="0.13852949"
     ry="0.32900754" /><ellipse
     style="fill:#ff0000;stroke-width:0.264583"
     id="path10"
     cx="6.4300771"
     cy="2.1183469"
     rx="0.46176496"
     ry="0.2135663" /><ellipse
     style="fill:#ff0000;stroke-width:0.264583"
     id="path11"
     cx="9.6912918"
     cy="3.9423184"
     rx="0.13275743"
     ry="0.45599291" /><ellipse
     style="fill:#ff0000;stroke-width:0.264583"
     id="path12"
     cx="10.874565"
     cy="6.8398933"
     rx="0.16161774"
     ry="0.47908118" /><ellipse
     style="fill:#ff0000;stroke-width:0.264583"
     id="path13"
     cx="1.8990084"
     cy="6.9264746"
     rx="0.19047806"
     ry="0.40404433" /><ellipse
     style="fill:#ff0000;stroke-width:0.264583"
     id="path14"
     cx="3.0187886"
     cy="9.7663288"
     rx="0.1673898"
     ry="0.34632373" /><ellipse
     style="fill:#ff0000;stroke-width:0.264583"
     id="path15"
     cx="9.8413658"
     cy="10.008756"
     rx="0.17893393"
     ry="0.36941198" /><ellipse
     style="fill:#ff0000;stroke-width:0.264583"
     id="path17"
     cx="6.5051141"
     cy="10.822617"
     rx="0.43290466"
     ry="0.23665455" /></g><g
   inkscape:label="Layer 1"
   id="layer1-5"
   transform="matrix(30.160457,0,0,25.142057,37.93776,56.809878)"
   style="fill-rule:evenodd;clip-rule:evenodd;stroke-linejoin:round;stroke-miterlimit:2"><rect
     style="fill:#000000;stroke-width:0.264583"
     id="rect1"
     width="3.5094142"
     height="3.0245605"
     x="2.331913"
     y="3.9134581" /><rect
     style="fill:#000000;stroke-width:0.264583"
     id="rect2"
     width="3.5094142"
     height="3.0245605"
     x="7.0765481"
     y="3.9134581" /><rect
     style="fill:#000000;stroke-width:0.264583"
     id="rect3"
     width="1.3852949"
     height="0.35786787"
     x="5.7605181"
     y="3.9134583" /><ellipse
     style="fill:#000000;stroke-width:0.264583"
     id="path3"
     ry="0.78500044"
     rx="1.760479"
     cy="6.8225775"
     cx="4.0808482" /><ellipse
     style="fill:#000000;stroke-width:0.264583"
     id="ellipse4"
     ry="0.78500044"
     rx="1.760479"
     cy="6.8456659"
     cx="8.8254833" /><rect
     style="fill:#000000;stroke-width:0.264583"
     id="rect4"
     width="1.3852949"
     height="0.35786787"
     x="1.9509569"
     y="3.9134586" /><path
     sodipodi:type="star"
     style="fill:#ffffff;stroke-width:0.264583"
     id="path4"
     inkscape:flatsided="false"
     sodipodi:sides="4"
     sodipodi:cx="8.4733877"
     sodipodi:cy="5.4719148"
     sodipodi:r1="0.82036418"
     sodipodi:r2="0.41018209"
     sodipodi:arg1="0.68572951"
     sodipodi:arg2="1.4711277"
     inkscape:rounded="0"
     inkscape:randomized="0"
     d="M 9.1083146,5.9914004 8.5142024,5.8800612 7.9539021,6.1068416 8.0652413,5.5127294 7.8384609,4.9524292 8.4325731,5.0637683 8.9928733,4.8369879 8.8815342,5.4311001 Z"
     transform="matrix(0.70907244,-0.59753744,0.60339565,0.71602413,-6.0198994,6.0802564)" /></g></svg>
